<?xml version="1.0" encoding="UTF-8"?>
<svg version="1.1" xmlns="http://www.w3.org/2000/svg" width="2000" height="1413">
<path d="M0 0 C2.70804092 2.19132559 5.32292473 4.4592723 7.9296875 6.76953125 C9.04537109 7.65318359 9.04537109 7.65318359 10.18359375 8.5546875 C30.64366333 25.20823251 42.69288975 52.62773159 45.70263672 78.32470703 C48.37648229 107.1159861 40.47422258 132.00776765 25.9296875 156.58203125 C15.48598533 174.68444835 7.82174519 195.88504636 5.9296875 216.76953125 C5.83131592 217.84074219 5.83131592 217.84074219 5.73095703 218.93359375 C2.45152962 257.05988658 13.72463362 292.18908624 38.3203125 321.42236328 C45.67828214 330.03108669 53.74352332 337.16751462 62.9296875 343.76953125 C63.53184082 344.20394531 64.13399414 344.63835937 64.75439453 345.0859375 C75.60444671 352.82154267 87.07144548 358.62131102 99.15234375 364.171875 C127.95495767 377.47532448 150.48278756 397.36477473 162.1796875 427.39453125 C172.13424986 454.82118166 172.20085909 485.41374987 160.5546875 512.31640625 C155.67420345 522.68743487 150.11972302 531.82708564 142.9296875 540.76953125 C142.35476563 541.49914062 141.77984375 542.22875 141.1875 542.98046875 C124.03827686 563.74005465 95.71986686 577.04303036 69.16918945 579.60400391 C41.93496235 581.61695561 17.1516452 575.175499 -6.0078125 560.76953125 C-37.27916773 541.6333288 -76.91823164 533.65853733 -112.8515625 541.8046875 C-151.08009424 551.09476447 -182.1902299 574.42809966 -202.87060547 607.77197266 C-208.14608146 616.55584416 -212.68522163 625.65922189 -216.6953125 635.08203125 C-221.39423289 646.11375378 -227.3063083 655.61798413 -235.0703125 664.76953125 C-235.58851563 665.43339844 -236.10671875 666.09726562 -236.640625 666.78125 C-253.55162984 687.72880122 -281.88223971 699.84737648 -308.0703125 702.76953125 C-340.66281312 704.43732886 -370.1632874 696.28070247 -394.75097656 674.26464844 C-416.82533325 653.96333244 -429.88014066 626.03555163 -431.35546875 596.03515625 C-432.09745413 570.19286559 -424.08369718 547.94428237 -411.0703125 525.95703125 C-400.7350918 508.04264871 -393.43984481 487.35676647 -391.0703125 466.76953125 C-390.96074219 465.87621094 -390.85117188 464.98289062 -390.73828125 464.0625 C-386.92414537 428.51475364 -397.76488476 392.64154313 -420.0703125 364.76953125 C-439.33661575 341.84205027 -463.27412481 326.76336613 -490.6628418 315.18798828 C-515.91271031 304.33728985 -536.05742859 281.98102027 -546.31640625 256.75244141 C-548.67419678 250.55102474 -550.4652154 244.20152675 -552.0703125 237.76953125 C-552.4415625 236.31740234 -552.4415625 236.31740234 -552.8203125 234.8359375 C-558.58952708 207.23184829 -551.87623062 177.41898425 -537.0703125 153.76953125 C-534.28886804 149.59736456 -531.23042216 145.66066811 -528.0703125 141.76953125 C-527.49667969 141.0425 -526.92304687 140.31546875 -526.33203125 139.56640625 C-509.61204883 119.29492398 -482.45390385 106.39939813 -456.6953125 103.05078125 C-425.43348701 100.62529479 -394.93374484 107.75149863 -370.68066406 128.35839844 C-347.45550995 148.71033761 -333.11254009 176.14282805 -330.90185547 207.13085938 C-329.58911162 233.82514851 -337.62445035 256.86407163 -351.0703125 279.58203125 C-361.4055332 297.49641379 -368.70078019 318.18229603 -371.0703125 338.76953125 C-371.17988281 339.66285156 -371.28945312 340.55617188 -371.40234375 341.4765625 C-374.71546042 372.35480989 -368.02912709 403.23540129 -348.50830078 427.72949219 C-338.72875816 439.60864754 -328.12161159 450.19388662 -316.0703125 459.76953125 C-314.93598811 460.70389675 -313.80324623 461.64018585 -312.671875 462.578125 C-269.68192623 497.98880318 -211.86607131 523.52486552 -155.15820312 518.30322266 C-134.67908135 516.06671297 -117.37438188 507.45008001 -102.0703125 493.76953125 C-101.25433594 493.06183594 -100.43835937 492.35414063 -99.59765625 491.625 C-89.16858458 482.45204472 -79.61606028 472.72873178 -71.0703125 461.76953125 C-69.90435547 460.31160156 -69.90435547 460.31160156 -68.71484375 458.82421875 C-43.1330408 426.36908559 -27.59654541 391.13107458 -19.0703125 350.76953125 C-18.79912598 349.50471924 -18.79912598 349.50471924 -18.52246094 348.21435547 C-14.30156006 327.70983998 -12.82070468 302.68405797 -20.0703125 282.76953125 C-20.33875977 282.01849121 -20.60720703 281.26745117 -20.88378906 280.49365234 C-27.25117372 263.16491724 -36.57170046 248.30215462 -49.0703125 234.76953125 C-49.76181396 234.0122876 -49.76181396 234.0122876 -50.46728516 233.23974609 C-67.48791673 214.7982618 -88.83205286 202.73352557 -111.60546875 192.74609375 C-139.47829562 180.49621566 -159.49849335 158.19057388 -170.5703125 130.0546875 C-180.71448066 101.76574236 -179.31388705 71.14891818 -167.15917969 43.71289062 C-162.86276106 34.62036606 -157.42527171 26.56931245 -151.0703125 18.76953125 C-150.45800781 17.99222656 -149.84570312 17.21492188 -149.21484375 16.4140625 C-113.50726364 -26.60253188 -44.35949926 -32.22553954 0 0 Z M17.9609375 430.328125 C7.84723909 442.48401251 2.59628928 456.90209241 3.9296875 472.76953125 C6.6441364 488.87635151 13.15942082 501.14769436 25.9296875 511.76953125 C29.4666622 514.12751438 33.05792181 516.02484671 36.9296875 517.76953125 C37.55875 518.0840625 38.1878125 518.39859375 38.8359375 518.72265625 C51.3020319 524.29959322 66.25028638 523.72022945 78.84619141 519.06054688 C94.35139874 512.68006767 104.43494098 501.72445149 110.9296875 486.40625 C116.09679315 472.78204564 115.14744914 457.90695835 109.59375 444.55859375 C102.43079215 429.84832421 91.14791228 420.44008362 75.9296875 414.76953125 C55.34305915 408.06046174 32.61482391 414.63890966 17.9609375 430.328125 Z " fill="#29B4C9" transform="translate(1521.0703125,153.23046875)"/>
<path d="M0 0 C5.84251133 4.6603864 11.1345498 9.56048278 15.703125 15.48046875 C16.48300781 16.47433594 17.26289062 17.46820312 18.06640625 18.4921875 C39.30216395 46.352167 42.69268971 78.56916871 38.703125 112.48046875 C-13.436875 112.48046875 -65.576875 112.48046875 -119.296875 112.48046875 C-112.13485275 129.191854 -106.51715227 138.5458451 -89.796875 145.29296875 C-73.08344565 151.60358061 -51.92970723 152.31820159 -35.296875 145.48046875 C-31.45377188 143.57685749 -27.76701525 141.44899132 -24.125 139.1875 C-17.84859759 135.39911899 -10.40675857 135.29576277 -3.296875 136.48046875 C2.42570486 138.28427974 7.56236237 141.44777171 12.703125 144.48046875 C14.29914925 145.40031227 15.89551277 146.31956732 17.4921875 147.23828125 C21.58751081 149.61190748 25.65133454 152.03334778 29.703125 154.48046875 C24.56122627 170.10837444 6.89294261 182.14289223 -7.0234375 189.44140625 C-11.33824706 191.57589172 -15.74237241 193.30394579 -20.296875 194.85546875 C-20.95896973 195.08202148 -21.62106445 195.30857422 -22.30322266 195.54199219 C-35.46314045 199.69841362 -48.5155406 201.00936593 -62.234375 200.85546875 C-63.34981689 200.84848969 -63.34981689 200.84848969 -64.48779297 200.84136963 C-75.34790689 200.7617902 -85.77191996 200.39915376 -96.296875 197.48046875 C-97.00585938 197.28710938 -97.71484375 197.09375 -98.4453125 196.89453125 C-114.78090017 192.31604474 -129.79657694 185.09748922 -142.296875 173.48046875 C-143.66392578 172.23330078 -143.66392578 172.23330078 -145.05859375 170.9609375 C-163.89166495 153.02092686 -176.20433424 128.33443507 -177.45800781 102.10986328 C-177.85708205 68.87997246 -173.66171849 38.95228685 -150.296875 13.48046875 C-149.86036621 12.99626465 -149.42385742 12.51206055 -148.97412109 12.01318359 C-111.55283608 -29.10403081 -43.57733339 -33.77633816 0 0 Z M-106.640625 42.62890625 C-114.11630615 50.32885784 -118.53326031 58.89878063 -120.296875 69.48046875 C-85.646875 69.48046875 -50.996875 69.48046875 -15.296875 69.48046875 C-18.38767289 55.57187825 -23.58239225 44.74281078 -35.609375 36.73046875 C-58.13940586 23.27375644 -86.91588312 24.54789286 -106.640625 42.62890625 Z " fill="#000000" transform="translate(672.296875,804.51953125)"/>
<path d="M0 0 C0 52.47 0 104.94 0 159 C24.75 159 49.5 159 75 159 C74.95359375 149.00976562 74.9071875 139.01953125 74.859375 128.7265625 C74.8389333 122.39192293 74.81951145 116.05730733 74.8046875 109.72265625 C74.78097671 99.67130343 74.75314146 89.62008499 74.69824219 79.56884766 C74.65827386 72.24773026 74.63254342 64.92672215 74.62364602 57.60549867 C74.6184481 53.73177134 74.6063002 49.85835656 74.57707977 45.98472977 C74.54975217 42.33213075 74.54158957 38.67997044 74.54756927 35.0272789 C74.54595923 33.0610568 74.52452774 31.09488152 74.50231934 29.12878418 C74.54119221 20.70383651 75.54234516 13.28941674 80.96484375 6.5625 C81.94130859 5.7890625 81.94130859 5.7890625 82.9375 5 C83.58589844 4.46375 84.23429688 3.9275 84.90234375 3.375 C98.21991957 -5.35458415 114.08816606 0 130 0 C130 52.47 130 104.94 130 159 C141.88 159 153.76 159 166 159 C166.08021762 176.10863545 166.08021762 176.10863545 166.09765625 183.44335938 C166.10957721 188.43355604 166.12362715 193.42367879 166.15087891 198.41381836 C166.17272875 202.44034189 166.18459405 206.46678606 166.18975449 210.49336433 C166.19342856 212.02382721 166.20060271 213.55428611 166.21146011 215.08471489 C166.36185813 237.17803963 166.36185813 237.17803963 158 246 C151.49989404 251.36965275 144.41049437 252.26137495 136.21875 252.1953125 C134.93935547 252.19031738 133.65996094 252.18532227 132.34179688 252.18017578 C130.74400391 252.16196777 129.14621094 252.14375977 127.5 252.125 C122.385 252.08375 117.27 252.0425 112 252 C112 238.14 112 224.28 112 210 C56.89 210 1.78 210 -55 210 C-55.20151517 162.00356436 -55.20151517 162.00356436 -55.24414062 141.8828125 C-55.27380286 127.9927446 -55.30866381 114.1028284 -55.37719727 100.21289062 C-55.42708718 90.09667434 -55.45930411 79.98058119 -55.47044247 69.8642453 C-55.47695171 64.50937966 -55.49221303 59.15486625 -55.52865028 53.80011368 C-55.56269787 48.75546362 -55.57303521 43.71130945 -55.56553841 38.6665554 C-55.56690903 36.81951257 -55.5767891 34.97245241 -55.59602737 33.12550926 C-55.77812302 14.7348481 -55.77812302 14.7348481 -50 7 C-47.6484375 4.74609375 -47.6484375 4.74609375 -45.375 3.4375 C-44.24191406 2.75494141 -44.24191406 2.75494141 -43.0859375 2.05859375 C-30.26418572 -4.44832522 -14.37836267 0 0 0 Z " fill="#000000" transform="translate(301,788)"/>
<path d="M0 0 C1.40959587 1.1711304 2.80514385 2.35933816 4.1875 3.5625 C5.00734375 4.25085938 5.8271875 4.93921875 6.671875 5.6484375 C15.23460187 13.04351979 23.58495962 22.06716733 28.1875 32.5625 C26.94096731 36.30209806 25.907273 36.59053444 22.54296875 38.49609375 C21.07573364 39.33793213 21.07573364 39.33793213 19.57885742 40.19677734 C18.52158447 40.79184082 17.46431152 41.3869043 16.375 42 C14.18671655 43.24993148 11.99922978 44.50125865 9.8125 45.75390625 C8.15347656 46.70160889 8.15347656 46.70160889 6.4609375 47.66845703 C0.69178432 51.00654551 -4.98931002 54.49286963 -10.65356445 58.00561523 C-11.424021 58.47555908 -12.19447754 58.94550293 -12.98828125 59.4296875 C-13.65770752 59.84331543 -14.32713379 60.25694336 -15.0168457 60.68310547 C-16.8125 61.5625 -16.8125 61.5625 -19.8125 61.5625 C-21.27734375 59.76953125 -21.27734375 59.76953125 -22.75 57.375 C-29.99739482 45.72118913 -41.11703005 38.47297336 -54.5 35.3125 C-70.10456129 32.63122089 -85.35508684 35.13779066 -98.8125 43.5625 C-111.62948055 52.98242983 -118.49579408 65.876523 -121.125 81.375 C-123.34796323 99.71945328 -118.81301573 114.46344607 -107.90625 129.125 C-99.19925383 139.261503 -86.26260381 144.7244644 -73.23046875 146.34375 C-57.07662238 147.37759617 -43.99618729 143.77868265 -30.8125 134.5625 C-23.36718059 129.46552506 -16.09397488 126.23388491 -6.8125 127.5625 C1.72661779 129.96126701 9.26155948 134.10539704 16.875 138.5625 C17.97005859 139.17867187 19.06511719 139.79484375 20.19335938 140.4296875 C21.22654297 141.03039062 22.25972656 141.63109375 23.32421875 142.25 C24.25967529 142.79011719 25.19513184 143.33023438 26.15893555 143.88671875 C27.16307495 144.71623047 27.16307495 144.71623047 28.1875 145.5625 C28.1875 155.17024845 18.90421026 163.74821305 12.46875 170.36328125 C-7.78483099 190.45372182 -34.19605076 201.67221572 -62.72192383 201.89208984 C-63.98931396 201.8864502 -65.2567041 201.88081055 -66.5625 201.875 C-67.22269135 201.87284485 -67.88288269 201.8706897 -68.56307983 201.86846924 C-100.25053223 201.70264413 -126.51095466 190.08417632 -148.8125 167.5625 C-169.60724577 145.63959354 -178.25840654 117.2088318 -177.96484375 87.36328125 C-176.79863862 58.26795828 -166.8673447 34.48431216 -147.8125 12.5625 C-147.28527344 11.95019531 -146.75804687 11.33789062 -146.21484375 10.70703125 C-110.06722226 -28.21406503 -41.61275213 -31.6315629 0 0 Z " fill="#000000" transform="translate(929.8125,803.4375)"/>
<path d="M0 0 C11.61802772 9.73402323 18.47848085 22.82020162 20.34375 37.83203125 C21.36497882 53.49695193 17.3653641 68.99609472 7.08203125 81.109375 C-3.5781729 92.53567359 -16.6985406 99.31703234 -32.41015625 100.390625 C-48.97137153 100.64186973 -63.14757041 95.95944573 -75.27172852 84.57055664 C-86.55640071 73.38732815 -91.63242008 59.92082232 -91.8125 44.3125 C-91.86242257 30.22094068 -88.46151038 19.29086848 -79.4375 8.1875 C-78.81101562 7.35476563 -78.18453125 6.52203125 -77.5390625 5.6640625 C-58.06289549 -17.28740569 -22.84425254 -16.98675189 0 0 Z " fill="#25B8C2" transform="translate(1824.4375,683.8125)"/>
<path d="M0 0 C0.33 -1.65 0.66 -3.3 1 -5 C3.31 -5 5.62 -5 8 -5 C8.07636198 1.68937834 8.12873047 8.37864333 8.16479492 15.06835938 C8.17983716 17.34183961 8.20027603 19.61529104 8.22631836 21.88867188 C8.26290221 25.16543711 8.27977248 28.44181706 8.29296875 31.71875 C8.30845261 32.72740112 8.32393646 33.73605225 8.33988953 34.77526855 C8.34147959 41.51459562 7.77019019 47.50983463 3.421875 52.98828125 C-5.20912539 59.82451754 -11.99059386 60.91638988 -23 60 C-29.18855765 58.82681372 -33.09653438 55.78174538 -37 51 C-37 49.68 -37 48.36 -37 47 C-35.02 46.34 -33.04 45.68 -31 45 C-30.2575 45.78375 -29.515 46.5675 -28.75 47.375 C-23.65521812 52.23820089 -19.80567463 52.3797474 -12.91796875 52.25390625 C-8.39639859 51.86046306 -5.43088924 50.58370265 -2.390625 47.21875 C-0.75254198 44.60517933 -0.51374786 42.80896753 -0.3125 39.75 C-0.24675781 38.85796875 -0.18101562 37.9659375 -0.11328125 37.046875 C-0.07589844 36.37140625 -0.03851562 35.6959375 0 35 C-0.86625 35.78375 -1.7325 36.5675 -2.625 37.375 C-7.82291411 41.64212484 -12.88667172 42.40831569 -19.4765625 42.25 C-26.24393909 41.57954783 -31.19067036 38.80932964 -36 34 C-40.91755942 27.00858166 -41.78447366 20.37908821 -41 12 C-39.20517959 4.76355848 -35.00011912 0.23055274 -29 -4 C-18.55100606 -9.85143661 -8.82598637 -6.82292564 0 0 Z M-31 7 C-33.63117319 11.80869583 -34.58467457 15.54303738 -34 21 C-32.19696376 27.04547445 -29.12409223 30.52959208 -24 34 C-19.40937391 35.5302087 -14.62459862 35.9413765 -9.99609375 34.28125 C-4.99657834 31.60332382 -2.09775635 28.30006091 0.3125 23.25 C1.37260435 18.23859762 1.31208028 13.62922651 -1.01171875 8.97265625 C-3.91536844 4.64008116 -6.86708102 1.75662949 -12.0703125 0.5 C-19.62758541 -0.72965797 -25.55496073 1.55496073 -31 7 Z " fill="#000000" transform="translate(756,1147)"/>
<path d="M0 0 C6.10763886 6.77059273 7.48125359 13.61944636 7.1015625 22.60546875 C6.13813463 30.28536523 2.63852891 34.67126266 -3.3125 39.46484375 C-9.03356301 43.50653406 -15.52014852 43.66260967 -22.30859375 42.875 C-26.53199436 41.55050159 -30.16109134 40.02250241 -33.30859375 36.875 C-33.63859375 44.465 -33.96859375 52.055 -34.30859375 59.875 C-36.61859375 59.875 -38.92859375 59.875 -41.30859375 59.875 C-41.30859375 38.755 -41.30859375 17.635 -41.30859375 -4.125 C-38.99859375 -4.125 -36.68859375 -4.125 -34.30859375 -4.125 C-33.97859375 -2.475 -33.64859375 -0.825 -33.30859375 0.875 C-32.50421875 0.09125 -31.69984375 -0.6925 -30.87109375 -1.5 C-22.10948687 -8.66858744 -8.34008826 -7.24316642 0 0 Z M-29.125 5.5625 C-33.62589761 10.76835747 -34.73016089 14.05214138 -34.6484375 20.98046875 C-34.03128574 26.23689923 -31.66298597 29.76560798 -27.76953125 33.25390625 C-23.01998052 36.48405094 -17.87745259 36.86850533 -12.30859375 35.875 C-7.23466018 33.90808922 -3.34757235 30.82017644 -0.9296875 25.8984375 C0.67327152 20.6762188 0.30423799 15.67944901 -1.43359375 10.5625 C-5.05338222 5.37413652 -9.15174233 2.34729056 -15.30859375 0.875 C-20.66178912 0.875 -25.10830995 1.83086537 -29.125 5.5625 Z " fill="#000000" transform="translate(948.30859375,1146.125)"/>
<path d="M0 0 C4.74746719 3.89398994 7.47429473 7.84226916 9.5859375 13.5859375 C10.0809375 19.0309375 10.0809375 19.0309375 10.5859375 24.5859375 C-2.6140625 24.5859375 -15.8140625 24.5859375 -29.4140625 24.5859375 C-25.99608335 32.06199947 -25.99608335 32.06199947 -20.4140625 36.5859375 C-14.96924605 38.40087632 -9.41260403 38.32613807 -4.0390625 36.3359375 C-1.48070671 34.63036697 0.53670111 32.87162425 2.5859375 30.5859375 C4.5659375 31.9059375 6.5459375 33.2259375 8.5859375 34.5859375 C4.52058179 40.26149293 0.44132766 43.82760842 -6.4140625 45.5859375 C-15.02678994 46.58451459 -21.6679792 45.45566228 -29.1015625 40.9609375 C-34.37014308 35.54996285 -37.08591422 29.6176285 -37.484375 22.0703125 C-37.27324991 14.61055945 -35.42177705 8.56053044 -29.99609375 3.1796875 C-21.77459641 -4.09073688 -9.65041544 -5.65283234 0 0 Z M-27.4140625 11.5859375 C-28.0740625 13.5659375 -28.7340625 15.5459375 -29.4140625 17.5859375 C-18.8540625 17.5859375 -8.2940625 17.5859375 2.5859375 17.5859375 C1.58389389 12.57571946 0.31063348 9.90951237 -3.4140625 6.5859375 C-12.70439903 1.6089715 -20.61187151 3.22895999 -27.4140625 11.5859375 Z " fill="#000000" transform="translate(676.4140625,1143.4140625)"/>
<path d="M0 0 C1.640625 1.375 1.640625 1.375 3.890625 3.75 C4.220625 2.1 4.550625 0.45 4.890625 -1.25 C7.200625 -1.25 9.510625 -1.25 11.890625 -1.25 C11.890625 13.93 11.890625 29.11 11.890625 44.75 C9.580625 44.75 7.270625 44.75 4.890625 44.75 C4.560625 43.1 4.230625 41.45 3.890625 39.75 C3.34792969 40.09933594 2.80523437 40.44867187 2.24609375 40.80859375 C1.53066406 41.26363281 0.81523437 41.71867187 0.078125 42.1875 C-0.98341797 42.86619141 -0.98341797 42.86619141 -2.06640625 43.55859375 C-7.63770687 46.8076314 -14.44493781 46.65743949 -20.5859375 45.13671875 C-27.26826034 42.53038321 -32.03349285 37.83233681 -35.27734375 31.453125 C-37.31073596 24.84698691 -37.43349061 15.58017662 -34.546875 9.1875 C-31.24454193 3.81242596 -26.22016884 -0.52644276 -20.109375 -2.25 C-13.45761784 -3.6439688 -6.00642825 -3.55936489 0 0 Z M-25.984375 10.5 C-28.90172336 14.96182691 -30.65027869 18.69848675 -29.6953125 24.0859375 C-27.93076375 29.92252183 -25.56640463 34.09293351 -20.421875 37.5625 C-15.02391367 39.49761821 -10.35887527 39.49983342 -4.921875 37.6875 C-0.45311045 34.60901775 3.15787331 30.94825506 4.890625 25.75 C5.66576801 19.19305257 4.76775417 15.09415102 0.890625 9.75 C-3.08989422 5.87423128 -7.03033785 4.23616376 -12.484375 3.375 C-17.96938055 4.15857222 -22.02329952 6.71114519 -25.984375 10.5 Z " fill="#000000" transform="translate(288.109375,1143.25)"/>
<path d="M0 0 C0.7425 0.78375 1.485 1.5675 2.25 2.375 C2.58 0.725 2.91 -0.925 3.25 -2.625 C5.56 -2.625 7.87 -2.625 10.25 -2.625 C10.25 12.555 10.25 27.735 10.25 43.375 C7.94 43.375 5.63 43.375 3.25 43.375 C2.92 41.725 2.59 40.075 2.25 38.375 C1.198125 39.303125 1.198125 39.303125 0.125 40.25 C-5.99249771 44.77162874 -12.35533016 45.1772034 -19.75 44.375 C-26.90886463 42.58244753 -31.67268292 38.44015034 -35.75 32.375 C-38.90434648 26.10878983 -38.53851933 19.17859603 -37.75 12.375 C-35.35477463 5.76895138 -31.150231 0.4170851 -24.75 -2.625 C-16.93586349 -5.74763756 -6.67676123 -5.54029123 0 0 Z M-27.6875 9.5 C-31.42681251 14.71237502 -31.35205979 19.06646047 -30.75 25.375 C-29.21663667 30.63922187 -25.72963548 33.85525971 -21.0234375 36.48828125 C-16.10365363 38.40716602 -11.39634637 38.40716602 -6.4765625 36.48828125 C-1.75024793 33.84400488 1.63882587 30.6239824 3.25 25.375 C4.07166821 19.42498884 3.76550963 14.41389713 0.25 9.375 C-4.18105209 5.04241573 -8.03453087 2.96165302 -14.125 2 C-19.58437475 2.77991068 -24.12840469 5.29098294 -27.6875 9.5 Z " fill="#000000" transform="translate(533.75,1144.625)"/>
<path d="M0 0 C5.79597341 5.74010861 8.02803466 10.52919581 8.4375 18.75 C8.28526401 25.96777717 6.28950527 31.74426788 1.09765625 36.8828125 C-6.02612971 42.54355604 -13.0192062 43.97427248 -22 43 C-29.2379741 41.18763882 -33.76337257 37.00873475 -38 31 C-41.16056915 25.65300973 -41.49745872 19.36516196 -40.6015625 13.3046875 C-38.86515031 6.62460767 -35.87801478 1.58534319 -30.078125 -2.28125 C-20.48491295 -7.48686894 -8.4913412 -7.30650289 0 0 Z M-29.3125 7.125 C-32.42184785 11.07628922 -33.72434981 14.99383696 -34 20 C-33.13995174 25.63809417 -31.01371577 28.98628423 -27 33 C-22.15168594 36.30566868 -17.69460707 36.72849928 -12 36 C-6.55810201 34.186034 -3.2216675 30.61737362 0 26 C1.59072853 21.22781442 2.02510621 16.51857991 0.09375 11.7734375 C-2.87216387 6.69716184 -6.2519518 2.98668911 -12.13671875 1.4375 C-19.16087508 0.292646 -24.32035873 1.93992573 -29.3125 7.125 Z " fill="#000000" transform="translate(839,1146)"/>
<path d="M0 0 C4.44514151 3.787631 7.56909616 8.31837279 9.375 13.875 C10.07033242 23.14609887 9.29932185 29.40391275 3.1875 36.6875 C-1.27074022 41.47424213 -5.39482926 44.04857317 -11.953125 44.578125 C-19.85340161 44.71355831 -25.17377214 43.63450391 -31.6875 39.125 C-37.17732049 33.63517951 -39.5383359 27.90766964 -39.75 20.1875 C-39.65154548 13.46574154 -38.15770254 8.34507501 -33.56640625 3.33203125 C-24.24607407 -5.21307481 -10.9095849 -7.59737696 0 0 Z M-29.4375 9.375 C-32.06867319 14.18369583 -33.02217457 17.91803738 -32.4375 23.375 C-30.63446376 29.42047445 -27.56159223 32.90459208 -22.4375 36.375 C-17.84687391 37.9052087 -13.06209862 38.3163765 -8.43359375 36.65625 C-3.62435684 34.08024405 -0.87683534 30.77389223 1.875 26.1875 C3.10602246 21.15149901 2.82296247 15.9883913 0.55078125 11.27734375 C-2.34145813 6.98004171 -5.34940796 4.12080336 -10.5078125 2.875 C-18.06508541 1.64534203 -23.99246073 3.92996073 -29.4375 9.375 Z " fill="#000000" transform="translate(429.4375,1144.625)"/>
<path d="M0 0 C2.31 0 4.62 0 7 0 C7.33 11.88 7.66 23.76 8 36 C12.455 31.545 12.455 31.545 17 27 C19.65270272 24.64204203 22.3070298 22.30826017 25 20 C25.33 19.67 25.66 19.34 26 19 C27.68608966 18.92794489 29.37500659 18.91613932 31.0625 18.9375 C31.98160156 18.94652344 32.90070313 18.95554687 33.84765625 18.96484375 C34.55792969 18.97644531 35.26820313 18.98804688 36 19 C31.68873407 24.21784054 27.11358487 28.86946443 22.125 33.4375 C21.43664062 34.07365234 20.74828125 34.70980469 20.0390625 35.36523438 C18.3625572 36.9136733 16.68287269 38.45848862 15 40 C16.70641849 43.6425656 18.74318198 45.97975319 21.625 48.8125 C22.51445312 49.68777344 23.40390625 50.56304688 24.3203125 51.46484375 C27.25548886 54.24170885 30.2755433 56.87636524 33.40625 59.4296875 C35.15096542 61.14874534 36.03228451 62.76457723 37 65 C33.07931434 65.56009795 29.4911575 66.04381025 26.125 63.6875 C24.96965551 62.48936497 23.84688993 61.25918913 22.75390625 60.00390625 C20.92676539 57.9163266 18.98691184 56.17111194 16.875 54.375 C13.72858279 51.69858702 10.95245526 48.95245526 8 46 C7.67 52.27 7.34 58.54 7 65 C4.69 65 2.38 65 0 65 C0 43.55 0 22.1 0 0 Z " fill="#000000" transform="translate(353,1123)"/>
<path d="M0 0 C4.79239671 6.08763906 5.12787575 10.90318744 5.09765625 18.48828125 C5.0962413 19.19147995 5.09482635 19.89467865 5.09336853 20.6191864 C5.08780109 22.85033544 5.07525475 25.08138164 5.0625 27.3125 C5.05748079 28.83137875 5.05291862 30.35025909 5.04882812 31.86914062 C5.03784236 35.57946012 5.02060034 39.28972001 5 43 C2.69 43 0.38 43 -2 43 C-2.01458252 42.09233887 -2.02916504 41.18467773 -2.04418945 40.24951172 C-2.10548149 36.8609069 -2.17967576 33.47308311 -2.26245117 30.08496094 C-2.29557135 28.62250292 -2.32364305 27.15992105 -2.34643555 25.69726562 C-2.38022175 23.58670597 -2.4325438 21.47726814 -2.48828125 19.3671875 C-2.51446533 18.09987793 -2.54064941 16.83256836 -2.56762695 15.52685547 C-3.03555365 11.70998981 -3.99350047 9.2632192 -6 6 C-9.3898318 3.55616778 -11.9606267 2.75292466 -16.0625 3.0625 C-19.92299685 3.74159314 -22.23768956 5.15644513 -25 8 C-27.36283515 11.60418347 -27.3097703 14.93065875 -27.4140625 19.171875 C-27.43342865 19.8542926 -27.4527948 20.53671021 -27.4727478 21.23980713 C-27.53231098 23.40974608 -27.57883446 25.57973877 -27.625 27.75 C-27.66320131 29.22528297 -27.7022543 30.70054415 -27.7421875 32.17578125 C-27.83799235 35.78365418 -27.92210916 39.39169083 -28 43 C-30.31 43 -32.62 43 -35 43 C-35 27.82 -35 12.64 -35 -3 C-32.69 -3 -30.38 -3 -28 -3 C-27.67 -2.01 -27.34 -1.02 -27 0 C-26.13375 -0.639375 -25.2675 -1.27875 -24.375 -1.9375 C-16.54326626 -6.72355951 -6.96292614 -5.99135505 0 0 Z " fill="#000000" transform="translate(483,1145)"/>
<path d="M0 0 C2.31 0 4.62 0 7 0 C7.01401855 1.40693115 7.01401855 1.40693115 7.02832031 2.84228516 C7.07249438 6.34286324 7.13417667 9.84224303 7.20751953 13.34228516 C7.23563782 14.85323938 7.25689771 16.36433821 7.27099609 17.87548828 C7.29255449 20.05576103 7.33926316 22.23431219 7.390625 24.4140625 C7.4220459 26.37786865 7.4220459 26.37786865 7.45410156 28.38134766 C8.0849343 32.56301262 9.31337384 34.76469667 12 38 C16.82450176 39.60816725 21.1893338 39.80474053 25.8125 37.75 C29.0634946 35.14920432 30.68357282 32.94928155 32 29 C32.15109093 26.79040747 32.24873801 24.57699953 32.31640625 22.36328125 C32.37924805 20.41518555 32.37924805 20.41518555 32.44335938 18.42773438 C32.48316987 17.05599239 32.52288216 15.68424756 32.5625 14.3125 C32.60570835 12.92902355 32.64932339 11.54555973 32.69335938 10.16210938 C32.79958028 6.77484281 32.90162358 3.38750201 33 0 C35.31 0 37.62 0 40 0 C40 15.18 40 30.36 40 46 C37.69 46 35.38 46 33 46 C32.505 44.02 32.505 44.02 32 42 C30.6078125 42.9590625 30.6078125 42.9590625 29.1875 43.9375 C23.85921542 47.38521355 19.1957578 47.65170193 13 47 C8.33150497 45.60819995 5.60243831 43.75690968 2.5625 39.9375 C0.06706485 35.24608191 -0.13445388 31.4614435 -0.09765625 26.26953125 C-0.0962413 25.51911057 -0.09482635 24.76868988 -0.09336853 23.99552917 C-0.0877756 21.6011454 -0.07522444 19.20685547 -0.0625 16.8125 C-0.05748408 15.18815239 -0.05292134 13.56380332 -0.04882812 11.93945312 C-0.03780848 7.95959931 -0.02054873 3.97981556 0 0 Z " fill="#000000" transform="translate(855,1142)"/>
<path d="M0 0 C1.9375 2.0625 1.9375 2.0625 3 4 C2.67 4.99 2.34 5.98 2 7 C-0.5625 8.1875 -0.5625 8.1875 -3 9 C-3.680625 8.195625 -4.36125 7.39125 -5.0625 6.5625 C-8.57972147 3.49428552 -10.36810539 3 -15 3 C-18.36878771 4.30719263 -18.36878771 4.30719263 -21 6 C-21 7.98 -21 9.96 -21 12 C-16.14792511 14.25232119 -11.34364024 16.23010668 -6.25 17.875 C-1.11994217 19.73851329 1.35326062 21.16285561 4 26 C4.95013518 30.06776626 4.9230142 33.38625331 2.8203125 37.0625 C-0.68184366 41.41751284 -3.97662051 43.65663684 -9.6484375 44.30078125 C-17.23436881 44.33338554 -21.9357505 43.59795066 -27.875 38.5625 C-29.83002797 36.20496627 -30.66789836 34.98891479 -31 32 C-28.35261084 30.5393715 -27.10551666 30 -24 30 C-22.64613064 31.65002828 -21.31321858 33.3174387 -20 35 C-15.19176407 36.60274531 -10.10146778 36.97385092 -5.4375 34.8125 C-3.5566419 32.44098326 -3.68101498 30.95061143 -4 28 C-8.27783285 25.27774273 -12.27308166 23.50948571 -17.125 22 C-21.47232933 20.61799543 -24.76092372 19.35076857 -28 16 C-29.88516123 12.22967754 -29.6306953 8.09645783 -29 4 C-27.19325518 0.33984167 -24.81572288 -2.11688112 -21.13671875 -3.90625 C-13.48379849 -6.23740006 -6.16502948 -5.13752457 0 0 Z " fill="#000000" transform="translate(340,1145)"/>
<path d="M0 0 C0 2.31 0 4.62 0 7 C-0.61488281 7.09796875 -1.22976563 7.1959375 -1.86328125 7.296875 C-6.80684199 8.1429561 -6.80684199 8.1429561 -11 10.6875 C-12.3258408 13.75350686 -12.68172519 16.68994193 -13 20 C-8.71 20 -4.42 20 0 20 C0 21.98 0 23.96 0 26 C-4.29 26 -8.58 26 -13 26 C-13 39.2 -13 52.4 -13 66 C-15.31 66 -17.62 66 -20 66 C-20 52.8 -20 39.6 -20 26 C-22.64 26 -25.28 26 -28 26 C-28 24.02 -28 22.04 -28 20 C-25.36 20 -22.72 20 -20 20 C-20.04640625 19.43152344 -20.0928125 18.86304688 -20.140625 18.27734375 C-20.42368862 12.22180413 -19.62675833 8.90102477 -16 4 C-10.76652717 0.07489538 -6.42197263 -0.12349947 0 0 Z " fill="#000000" transform="translate(640,1122)"/>
<path d="M0 0 C2.31 0 4.62 0 7 0 C7 22.11 7 44.22 7 67 C4.69 67 2.38 67 0 67 C0 44.89 0 22.78 0 0 Z " fill="#000000" transform="translate(579,1121)"/>
<path d="M0 0 C0 2.31 0 4.62 0 7 C-1.85625 7.37125 -1.85625 7.37125 -3.75 7.75 C-7.54878169 8.71647449 -9.64133191 9.73415188 -12 13 C-13.71037877 17.32680022 -14.28643029 21.07363382 -14.4140625 25.7109375 C-14.45273437 26.95488281 -14.49140625 28.19882813 -14.53125 29.48046875 C-14.5621875 30.76566406 -14.593125 32.05085938 -14.625 33.375 C-14.66367187 34.68339844 -14.70234375 35.99179688 -14.7421875 37.33984375 C-14.83619957 40.55975716 -14.92185821 43.7796688 -15 47 C-17.31 47 -19.62 47 -22 47 C-22 31.82 -22 16.64 -22 1 C-19.69 1 -17.38 1 -15 1 C-14.67 2.32 -14.34 3.64 -14 5 C-13.236875 4.360625 -12.47375 3.72125 -11.6875 3.0625 C-7.70935607 0.00950582 -4.88502293 -0.10855607 0 0 Z " fill="#000000" transform="translate(797,1141)"/>
<path d="M0 0 C2.31 0 4.62 0 7 0 C7 15.18 7 30.36 7 46 C4.69 46 2.38 46 0 46 C0 30.82 0 15.64 0 0 Z " fill="#000000" transform="translate(597,1142)"/>
<path d="M0 0 C2.4375 0.8125 2.4375 0.8125 4.4375 3.8125 C4.0625 6.5 4.0625 6.5 3.4375 8.8125 C0.0625 9.4375 0.0625 9.4375 -3.5625 9.8125 C-5.5625 7.8125 -5.5625 7.8125 -5.875 4.8125 C-5.771875 3.8225 -5.66875 2.8325 -5.5625 1.8125 C-2.5625 -0.1875 -2.5625 -0.1875 0 0 Z " fill="#000000" transform="translate(601.5625,1123.1875)"/>
</svg>
